<svg xmlns="http://www.w3.org/2000/svg" width="1000" height="560" viewBox="0 0 1000 560"><defs><marker id="arr" markerWidth="10" markerHeight="10" refX="8" refY="3" orient="auto"><path d="M0,0 L0,6 L9,3 z" fill="#345f50"/></marker></defs><rect width="1000" height="560" fill="#fafcf8"/><style>text{font-family:Arial,sans-serif;fill:#234438;font-size:23px}.small{font-size:18px}.title{font-size:28px;font-weight:bold}.arrow{stroke:#345f50;stroke-width:3;fill:none;marker-end:url(#arr)}</style><text x="35" y="45" class="title">Checkpoint: four independent questions</text><text x="35" y="127" class="">Content</text><rect x="225" y="85" width="740" height="65" rx="10" stroke="#b8cab5" fill="#e2ecdf"/><text x="240" y="125.5" class="">Model tensors / full training-state bundle</text><path d="M600,153 L600,185" class="arrow"/><text x="35" y="232" class="">Encoding</text><rect x="225" y="190" width="740" height="65" rx="10" stroke="#b8cab5" fill="#e2ecdf"/><text x="240" y="230.5" class="">PyTorch save / safetensors tensor container</text><path d="M600,258 L600,290" class="arrow"/><text x="35" y="337" class="">Partition</text><rect x="225" y="295" width="740" height="65" rx="10" stroke="#b8cab5" fill="#e2ecdf"/><text x="240" y="335.5" class="">Whole-tensor files / distributed tensor shards</text><path d="M600,363 L600,395" class="arrow"/><text x="35" y="442" class="">Reader</text><rect x="225" y="400" width="740" height="65" rx="10" stroke="#b8cab5" fill="#e2ecdf"/><text x="240" y="440.5" class="">Matching model loader / training restore protocol</text><text x="35" y="535" class="small">A file suffix does not define its contents, partitioning or recovery protocol.</text></svg>